<svg width="24" height="24" viewBox="0 0 24 24" fill="none" xmlns="http://www.w3.org/2000/svg">
<rect width="24" height="24"/>
<path fill-rule="evenodd" clip-rule="evenodd" d="M5 4C3.89543 4 3 4.89543 3 6V19C3 20.1046 3.89543 21 5 21H19C20.1046 21 21 20.1046 21 19V6C21 4.89543 20.1046 4 19 4H5ZM19 9H5V19H19V9Z" fill="#A5B3BB"/>
<path fill-rule="evenodd" clip-rule="evenodd" d="M7 2C6.44772 2 6 2.44772 6 3V6C6 6.55228 6.44772 7 7 7C7.55228 7 8 6.55228 8 6V3C8 2.44772 7.55228 2 7 2ZM17 2C16.4477 2 16 2.44772 16 3V6C16 6.55228 16.4477 7 17 7C17.5523 7 18 6.55228 18 6V3C18 2.44772 17.5523 2 17 2Z" fill="#0D2B3E"/>
</svg>
